<?xml version="1.0" encoding="UTF-8"?>
<svg xmlns="http://www.w3.org/2000/svg" xmlns:xlink="http://www.w3.org/1999/xlink" width="50px" height="20px" viewBox="0 0 49 20" version="1.1">
<g id="surface1">
<rect x="0" y="0" width="49" height="20" style="fill:rgb(92.941176%,11.372549%,14.117647%);fill-opacity:1;stroke:none;"/>
<path style=" stroke:none;fill-rule:nonzero;fill:rgb(100%,100%,100%);fill-opacity:1;" d="M 41.464844 4.667969 L 41.464844 1.601562 L 33.066406 1.601562 L 31.683594 11.839844 L 30.320312 1.601562 L 27.289062 1.601562 L 27.628906 4.332031 C 27.277344 3.632812 26.039062 1.601562 23.308594 1.601562 C 23.292969 1.601562 20.277344 1.601562 20.277344 1.601562 L 20.265625 16.527344 L 18.058594 1.601562 L 14.089844 1.597656 L 11.804688 17.0625 L 11.808594 1.601562 L 8.011719 1.601562 L 6.640625 10.289062 L 5.308594 1.601562 L 1.511719 1.601562 L 1.511719 18.414062 L 4.5 18.414062 L 4.5 10.308594 L 5.863281 18.414062 L 7.453125 18.414062 L 8.792969 10.308594 L 8.792969 18.414062 L 14.558594 18.414062 L 14.910156 15.824219 L 17.230469 15.824219 L 17.578125 18.414062 L 23.238281 18.417969 L 23.242188 18.417969 L 23.242188 18.414062 L 23.25 18.414062 L 23.25 12.957031 L 23.945312 12.851562 L 25.382812 18.417969 L 28.308594 18.417969 L 28.308594 18.414062 L 28.316406 18.414062 L 26.433594 11.890625 C 27.386719 11.175781 28.464844 9.351562 28.179688 7.609375 C 28.183594 7.632812 29.957031 18.421875 29.957031 18.421875 L 33.441406 18.414062 L 35.820312 3.175781 L 35.820312 18.414062 L 41.464844 18.414062 L 41.464844 15.390625 L 38.785156 15.390625 L 38.785156 11.535156 L 41.464844 11.535156 L 41.464844 8.464844 L 38.785156 8.464844 L 38.785156 4.667969 Z M 15.261719 13.160156 L 16.082031 5.972656 L 16.933594 13.160156 Z M 23.953125 9.839844 C 23.726562 9.953125 23.484375 10.011719 23.25 10.011719 L 23.25 4.605469 C 23.253906 4.605469 23.261719 4.601562 23.265625 4.601562 C 23.5 4.601562 25.246094 4.675781 25.246094 7.277344 C 25.246094 8.640625 24.652344 9.496094 23.953125 9.839844 M 47.492188 15.386719 L 47.492188 18.410156 L 41.984375 18.410156 L 41.984375 1.597656 L 44.949219 1.597656 L 44.949219 15.386719 Z M 47.492188 15.386719 "/>
</g>
</svg>
